<svg width="93" height="74" viewBox="0 0 93 74" fill="none" xmlns="http://www.w3.org/2000/svg">
<g clip-path="url(#clip0_31_131)">
<path d="M49.0888 51.9835H6.72427C4.33088 49.0172 2.58876 41.9823 2.58876 37.2978C2.58876 28.4637 9.60609 21.2667 18.2516 21.2667C19.0331 21.2667 19.8472 21.3478 20.7752 21.4936C21.4753 21.6071 22.1266 21.1532 22.2568 20.4562C24.1618 10.0822 33.0515 2.56108 43.3577 2.56108C51.417 2.56108 58.7437 7.13213 62.4559 14.4912C62.7327 15.0261 63.3514 15.3179 63.9375 15.1558C65.6796 14.7019 67.4217 14.4912 69.0987 14.4912C80.854 14.4912 90.4112 24.2655 90.4112 36.2928C90.4112 41.0584 89.0273 48.4174 86.9758 51.9835H84.3382C83.6218 51.9835 83.0357 52.567 83.0357 53.2803C83.0357 53.9935 83.6218 54.577 84.3382 54.577H87.6922C88.1155 54.577 88.5226 54.3663 88.7668 54.0097C91.5184 49.9411 93 41.1232 93 36.309C93 22.8714 82.2868 11.9301 69.0987 11.9301C67.5357 11.9301 65.9239 12.1084 64.2957 12.4488C60.0137 4.74935 52.0846 0 43.3577 0C32.1885 0 22.5336 7.82913 19.9611 18.8029C19.3587 18.7381 18.7889 18.7056 18.2353 18.7056C8.1896 18.7056 0 27.0535 0 37.314C0 42.112 1.80725 50.6381 5.1938 54.1718C5.43803 54.4311 5.77994 54.577 6.13813 54.577H49.0888C49.8051 54.577 50.3913 53.9935 50.3913 53.2803C50.3913 52.567 49.8051 51.9835 49.0888 51.9835Z" fill="#5DC4F1"/>
<path d="M79.926 44.0409L68.2033 31.43C68.2033 31.43 68.1707 31.3976 68.1545 31.3814C68.1545 31.3814 68.1382 31.3652 68.1219 31.3489C68.0568 31.3003 67.9916 31.2679 67.9265 31.2355C67.9265 31.2355 67.9102 31.2355 67.894 31.2355C67.8126 31.2193 67.7311 31.2031 67.6497 31.2031C67.6497 31.2031 67.6497 31.2031 67.6335 31.2031C67.552 31.2031 67.4706 31.2193 67.4055 31.2517C67.4055 31.2517 67.3729 31.2517 67.3567 31.2517C67.2915 31.2841 67.2101 31.3165 67.1613 31.3652C67.1613 31.3652 67.145 31.3814 67.1287 31.3814C67.0962 31.3976 67.0799 31.43 67.0636 31.4462L56.155 44.5272C55.927 44.7865 56.0247 45.1593 56.3504 45.3376C56.4806 45.4025 56.6109 45.4349 56.7574 45.4349C56.9853 45.4349 57.2133 45.3377 57.3598 45.1756L66.9496 33.6669V73.2016C66.9496 73.5258 67.2753 73.7851 67.666 73.7851C68.0568 73.7851 68.3824 73.5258 68.3824 73.2016V33.5048L78.8189 44.7379C79.0631 44.9973 79.5027 45.0459 79.8283 44.8514C80.1539 44.6569 80.2028 44.3002 79.9748 44.0409H79.926Z" fill="#5DC4F1"/>
</g>
<defs>
<clipPath id="clip0_31_131">
<rect width="93" height="73.7851" fill="white"/>
</clipPath>
</defs>
</svg>
