<svg width="45" height="50" viewBox="0 0 45 50" fill="none" xmlns="http://www.w3.org/2000/svg">
<path d="M16.9188 19.8587C16.8777 19.8587 16.8366 19.8533 16.7955 19.8371C16.684 19.7939 16.6136 19.6914 16.6136 19.5835V15.8449H12.2288C12.0644 15.8449 11.9294 15.7208 11.9294 15.5697V2.16876C11.9294 2.0177 12.0644 1.89362 12.2288 1.89362H31.1355C31.2998 1.89362 31.4348 2.0177 31.4348 2.16876V15.5643C31.4348 15.7154 31.2998 15.8395 31.1355 15.8395H21.7966L17.1184 19.7831C17.0597 19.8317 16.9892 19.8533 16.9129 19.8533L16.9188 19.8587ZM12.534 15.2892H16.9188C17.0831 15.2892 17.2181 15.4133 17.2181 15.5643V18.9523L21.4796 15.3647C21.5325 15.3162 21.6088 15.2946 21.6851 15.2946H30.8361V2.44929H12.534V15.2892Z" fill="#5DC4F1"/>
<path d="M33.7886 14.4152H31.1354C30.971 14.4152 30.836 14.2911 30.836 14.1401C30.836 13.989 30.971 13.8649 31.1354 13.8649H33.4833V0.555676H15.1812V2.17415C15.1812 2.32521 15.0462 2.44929 14.8819 2.44929C14.7175 2.44929 14.5825 2.32521 14.5825 2.17415V0.27514C14.5825 0.124083 14.7175 0 14.8819 0H33.7886C33.9529 0 34.0879 0.124083 34.0879 0.27514V14.1347C34.0879 14.2857 33.9529 14.4098 33.7886 14.4098V14.4152Z" fill="#5DC4F1"/>
<path d="M29.1044 18.429C29.0281 18.429 28.9576 18.402 28.8989 18.3589L25.829 15.7747C25.7057 15.6722 25.6999 15.4942 25.8114 15.3809C25.9229 15.2676 26.1166 15.2622 26.2399 15.3647L28.805 17.5227V15.5697C28.805 15.4186 28.94 15.2946 29.1044 15.2946C29.2687 15.2946 29.4037 15.4186 29.4037 15.5697V18.1539C29.4037 18.2618 29.3333 18.3643 29.2218 18.4074C29.1807 18.4236 29.1396 18.429 29.0985 18.429H29.1044Z" fill="#5DC4F1"/>
<path d="M28.3533 6.19875H14.888C14.7236 6.19875 14.5886 6.07467 14.5886 5.92361C14.5886 5.77255 14.7236 5.64847 14.888 5.64847H28.3533C28.5177 5.64847 28.6527 5.77255 28.6527 5.92361C28.6527 6.07467 28.5177 6.19875 28.3533 6.19875Z" fill="#5DC4F1"/>
<path d="M28.3533 8.67504H14.888C14.7236 8.67504 14.5886 8.55095 14.5886 8.3999C14.5886 8.24884 14.7236 8.12476 14.888 8.12476H28.3533C28.5177 8.12476 28.6527 8.24884 28.6527 8.3999C28.6527 8.55095 28.5177 8.67504 28.3533 8.67504Z" fill="#5DC4F1"/>
<path d="M20.2645 11.1513H14.8819C14.7175 11.1513 14.5825 11.0272 14.5825 10.8762C14.5825 10.7251 14.7175 10.601 14.8819 10.601H20.2645C20.4289 10.601 20.5639 10.7251 20.5639 10.8762C20.5639 11.0272 20.4289 11.1513 20.2645 11.1513Z" fill="#5DC4F1"/>
<path d="M34.1995 34.2415C29.6445 34.2415 25.9407 30.8373 25.9407 26.6508C25.9407 22.4644 29.6445 19.0602 34.1995 19.0602C38.7545 19.0602 42.4583 22.4644 42.4583 26.6508C42.4583 30.8373 38.7545 34.2415 34.1995 34.2415ZM34.1995 19.9126C30.1611 19.9126 26.874 22.9338 26.874 26.6455C26.874 30.3572 30.1611 33.3783 34.1995 33.3783C38.2379 33.3783 41.525 30.3572 41.525 26.6455C41.525 22.9338 38.2379 19.9126 34.1995 19.9126Z" fill="#5DC4F1"/>
<path d="M44.5362 50H24.256C23.9977 50 23.7864 49.8058 23.7864 49.5684V43.1269C23.7864 37.7536 28.5468 33.3783 34.3931 33.3783C40.2395 33.3783 44.9999 37.7536 44.9999 43.1269V49.5684C44.9999 49.8058 44.7886 50 44.5303 50H44.5362ZM24.7255 49.1423H44.0725V43.1323C44.0725 38.2283 39.7347 34.2415 34.399 34.2415C29.0633 34.2415 24.7255 38.2283 24.7255 43.1323V49.1423Z" fill="#5DC4F1"/>
<path d="M10.0857 33.9556C5.67145 33.9556 2.08203 30.5514 2.08203 26.3649C2.08203 22.1785 5.67145 18.7743 10.0857 18.7743C14.4999 18.7743 18.0893 22.1785 18.0893 26.3649C18.0893 30.5514 14.4999 33.9556 10.0857 33.9556ZM10.0857 19.6267C6.17203 19.6267 2.9865 22.6478 2.9865 26.3595C2.9865 30.0712 6.17203 33.0924 10.0857 33.0924C13.9993 33.0924 17.1849 30.0712 17.1849 26.3595C17.1849 22.6478 13.9993 19.6267 10.0857 19.6267Z" fill="#5DC4F1"/>
<path d="M20.103 49.7141H0.455076C0.204784 49.7141 0 49.5199 0 49.2825V42.841C0 37.4677 4.61334 33.0924 10.279 33.0924C15.9447 33.0924 20.5581 37.4677 20.5581 42.841V49.2825C20.5581 49.5199 20.3533 49.7141 20.103 49.7141ZM0.904464 48.8563H19.6536V42.8464C19.6536 37.9424 15.4498 33.9556 10.279 33.9556C5.10823 33.9556 0.904464 37.9424 0.904464 42.8464V48.8563Z" fill="#5DC4F1"/>
</svg>
