<svg width="71" height="70" viewBox="0 0 71 70" fill="none" xmlns="http://www.w3.org/2000/svg">
<path d="M70 68.0423V0.957668C70 0.430951 69.5681 0 69.0403 0H0.959726C0.431877 0 0 0.430951 0 0.957668V68.0543C0 68.581 0.431877 69.012 0.959726 69.012H69.0523C69.5801 69.012 70.012 68.581 70.012 68.0543L70 68.0423ZM68.0925 67.0847H1.90746V1.90337H68.0925V67.0966V67.0847Z" fill="#5DC4F1"/>
<path d="M10.053 17.7288H59.7548C60.2826 17.7288 60.7145 17.2979 60.7145 16.7712C60.7145 16.2445 60.2826 15.8135 59.7548 15.8135H10.053C9.52514 15.8135 9.09326 16.2445 9.09326 16.7712C9.09326 17.2979 9.52514 17.7288 10.053 17.7288Z" fill="#5DC4F1"/>
<path d="M59.647 24.3846H10.2451C9.71728 24.3846 9.2854 24.8156 9.2854 25.3423C9.2854 25.869 9.71728 26.3 10.2451 26.3H59.635C60.1629 26.3 60.5947 25.869 60.5947 25.3423C60.5947 24.8156 60.1629 24.3846 59.635 24.3846H59.647Z" fill="#5DC4F1"/>
<path d="M59.623 32.9557H10.1731C9.64526 32.9557 9.21338 33.3867 9.21338 33.9134C9.21338 34.4401 9.64526 34.8711 10.1731 34.8711H59.635C60.1628 34.8711 60.5947 34.4401 60.5947 33.9134C60.5947 33.3867 60.1628 32.9557 59.635 32.9557H59.623Z" fill="#5DC4F1"/>
<path d="M60.2707 50.0861H34.5381C34.0102 50.0861 33.5784 50.517 33.5784 51.0437C33.5784 51.5704 34.0102 52.0014 34.5381 52.0014H60.2707C60.7986 52.0014 61.2305 51.5704 61.2305 51.0437C61.2305 50.517 60.7986 50.0861 60.2707 50.0861Z" fill="#5DC4F1"/>
<path d="M10.0291 43.4303H60.2827C60.8106 43.4303 61.2424 42.9993 61.2424 42.4726C61.2424 41.9459 60.8106 41.5149 60.2827 41.5149H10.0291C9.50121 41.5149 9.06934 41.9459 9.06934 42.4726C9.06934 42.9993 9.50121 43.4303 10.0291 43.4303Z" fill="#5DC4F1"/>
</svg>
