<svg width="42" height="43" viewBox="0 0 42 43" fill="none" xmlns="http://www.w3.org/2000/svg">
<path d="M26.4811 15.8049H17.0288C16.7052 15.8049 16.4404 15.5351 16.4404 15.2052C16.4404 14.8753 16.7052 14.6055 17.0288 14.6055H26.4811C26.8048 14.6055 27.0622 14.8753 27.0622 15.2052C27.0622 15.5351 26.7974 15.8049 26.4811 15.8049Z" fill="#5DC4F1"/>
<path d="M34.8815 2.04859C34.6902 1.41137 34.1091 0.976562 33.4544 0.976562H9.67296C9.01093 0.976562 8.42982 1.41137 8.22386 2.04859L0.735596 24.7636V40.8441C0.735596 41.6387 1.3682 42.291 2.15528 42.291H40.5823C41.3031 42.291 41.8916 41.6912 41.8916 40.9565V24.7636L34.8815 2.04859ZM9.41551 2.16854H33.6972L40.5161 24.7636H27.0769C26.4737 24.7636 25.9883 25.2584 25.9883 25.8806V32.1329H16.8596V26.1205C16.8596 25.3709 16.2638 24.7711 15.5356 24.7711H2.12585L9.40815 2.16854H9.41551ZM40.722 41.099H1.90518V25.9631H15.6753V32.1104C15.6753 32.7851 16.2123 33.3324 16.8743 33.3324H25.9C26.5914 33.3324 27.1431 32.7626 27.1431 32.0654V25.9706H40.7147V41.1065L40.722 41.099Z" fill="#5DC4F1"/>
</svg>
