<svg width="40" height="50" viewBox="0 0 40 50" fill="none" xmlns="http://www.w3.org/2000/svg">
<path d="M38.4825 18.247C38.1034 18.247 37.7932 18.5701 37.7932 18.965V35.8377L19.5773 48.4384L1.37007 35.8287V5.25141L2.47301 4.80267C13.5025 0.306267 25.6607 0.306267 36.6988 4.80267L38.2326 5.43091C38.5859 5.5745 38.9823 5.39501 39.1201 5.02704C39.258 4.65907 39.0857 4.24623 38.7324 4.10263L37.1986 3.47439C25.8331 -1.15663 13.3301 -1.15663 1.97324 3.46541L0.439455 4.09365C0.180952 4.20135 0 4.46162 0 4.75779V36.2146C0 36.457 0.112018 36.6723 0.310204 36.807L19.2068 49.8833C19.3188 49.9641 19.4567 50 19.5859 50C19.7152 50 19.853 49.9641 19.9651 49.8833L38.8616 36.807C39.0512 36.6723 39.1632 36.448 39.1632 36.2146V18.965C39.1632 18.5701 38.853 18.247 38.4739 18.247H38.4825Z" fill="#5DC4F1"/>
<path d="M20.3872 30.0035V9.78314C20.3872 9.38825 20.077 9.06516 19.6979 9.06516C19.3187 9.06516 19.0085 9.38825 19.0085 9.78314V30.0035C19.0085 30.3984 19.3187 30.7215 19.6979 30.7215C20.077 30.7215 20.3872 30.3984 20.3872 30.0035Z" fill="#5DC4F1"/>
<path d="M16.9578 39.2179C16.9578 40.7885 18.19 42.0719 19.6979 42.0719C21.2058 42.0719 22.438 40.7885 22.438 39.2179C22.438 37.6473 21.2058 36.3639 19.6979 36.3639C18.19 36.3639 16.9578 37.6473 16.9578 39.2179ZM19.6979 37.7909C20.4562 37.7909 21.068 38.4281 21.068 39.2179C21.068 40.0077 20.4562 40.6449 19.6979 40.6449C18.9396 40.6449 18.3278 40.0077 18.3278 39.2179C18.3278 38.4281 18.9396 37.7909 19.6979 37.7909Z" fill="#5DC4F1"/>
</svg>
