<svg width="49" height="50" viewBox="0 0 49 50" fill="none" xmlns="http://www.w3.org/2000/svg">
<path d="M24.0026 49.9915C10.768 49.9915 0 38.776 0 25C0 11.224 10.768 0 24.0026 0C37.2371 0 48.0051 11.2154 48.0051 25C48.0051 38.7846 37.2371 50 24.0026 50V49.9915ZM24.0026 1.35712C11.4809 1.35712 1.30297 11.958 1.30297 25C1.30297 38.042 11.4809 48.6429 24.0026 48.6429C36.5242 48.6429 46.7021 38.042 46.7021 25C46.7021 11.958 36.516 1.35712 24.0026 1.35712Z" fill="#5DC4F1"/>
<path d="M24.0025 16.9C22.6012 16.9 21.4622 15.7136 21.4622 14.254C21.4622 12.7945 22.6012 11.6081 24.0025 11.6081C25.4039 11.6081 26.5511 12.7945 26.5511 14.254C26.5511 15.7136 25.412 16.9 24.0025 16.9ZM24.0025 12.9567C23.3224 12.9567 22.7651 13.5371 22.7651 14.2455C22.7651 14.9539 23.3224 15.5343 24.0025 15.5343C24.6827 15.5343 25.24 14.9539 25.24 14.2455C25.24 13.5371 24.6827 12.9567 24.0025 12.9567Z" fill="#5DC4F1"/>
<path d="M24.0026 36.9581C23.642 36.9581 23.347 36.6508 23.347 36.2753V21.4494H20.5936C20.233 21.4494 19.938 21.1421 19.938 20.7666C19.938 20.391 20.233 20.0837 20.5936 20.0837H24.0026C24.3632 20.0837 24.6582 20.391 24.6582 20.7666V36.2667C24.6582 36.6423 24.3632 36.9496 24.0026 36.9496V36.9581Z" fill="#5DC4F1"/>
<path d="M28.5589 36.958H19.4381C19.0775 36.958 18.7825 36.6507 18.7825 36.2752C18.7825 35.8996 19.0775 35.5923 19.4381 35.5923H28.5589C28.9194 35.5923 29.2144 35.8996 29.2144 36.2752C29.2144 36.6507 28.9194 36.958 28.5589 36.958Z" fill="#5DC4F1"/>
</svg>
