<svg width="43" height="41" viewBox="0 0 43 41" fill="none" xmlns="http://www.w3.org/2000/svg">
<path d="M42.8994 1.35646C42.8994 1.31148 42.892 1.2665 42.8699 1.22152C42.8552 1.17654 42.8258 1.14655 42.8037 1.10906C42.789 1.08657 42.7817 1.05659 42.7596 1.0341C42.7596 1.0341 42.7596 1.0341 42.7522 1.0341C42.7228 1.00411 42.6787 0.981621 42.6419 0.951634C42.6125 0.93664 42.5904 0.91415 42.5683 0.899157C42.5389 0.884163 42.5095 0.884163 42.4874 0.876667C42.4433 0.861673 42.3992 0.84668 42.3477 0.84668C42.3477 0.84668 42.3477 0.84668 42.333 0.84668H0.581113C0.581113 0.84668 0.573757 0.84668 0.566401 0.84668C0.522266 0.84668 0.478131 0.861673 0.433996 0.876667C0.404572 0.884163 0.375149 0.884163 0.345725 0.899157C0.316302 0.91415 0.294234 0.93664 0.272167 0.951634C0.235387 0.974124 0.191252 0.996614 0.161829 1.0341C0.161829 1.0341 0.161829 1.0341 0.154473 1.0341C0.132405 1.05659 0.12505 1.08657 0.110338 1.10906C0.0882703 1.14655 0.0588469 1.18403 0.0441351 1.22152C0.0294234 1.2665 0.0220676 1.31148 0.0147117 1.35646C0.0147117 1.38644 0 1.40893 0 1.43892V32.5428C0 32.8726 0.264811 33.1425 0.588469 33.1425H20.9127C21.2584 37.5131 24.8554 40.9616 29.2248 40.9616C33.5942 40.9616 37.1912 37.5131 37.5369 33.1425H42.333C42.6566 33.1425 42.9214 32.8726 42.9214 32.5428V1.44642C42.9214 1.44642 42.9067 1.39394 42.9067 1.36395L42.8994 1.35646ZM40.8397 2.03866L21.457 20.2857L2.07435 2.03866H40.8324H40.8397ZM29.2248 39.7696C25.2674 39.7696 22.0455 36.4861 22.0455 32.4528C22.0455 28.4196 25.2674 25.136 29.2248 25.136C33.1823 25.136 36.4041 28.4196 36.4041 32.4528C36.4041 36.4861 33.1823 39.7696 29.2248 39.7696ZM41.7519 31.9505H37.5517C37.2942 27.49 33.6678 23.9441 29.2248 23.9441C24.7819 23.9441 21.1554 27.49 20.898 31.9505H1.16223V2.80332L21.0525 21.5376C21.1628 21.6426 21.3099 21.695 21.4497 21.695C21.5894 21.695 21.7366 21.6426 21.8469 21.5376L41.7445 2.80332V31.9505H41.7519Z" fill="#5DC4F1"/>
<path d="M32.9837 28.8393L27.1284 34.8067L25.4513 33.0975C25.2232 32.8651 24.8554 32.8651 24.6274 33.0975C24.3994 33.3299 24.3994 33.7047 24.6274 33.9371L26.7165 36.0662C26.8268 36.1786 26.9739 36.2386 27.1284 36.2386C27.2829 36.2386 27.43 36.1786 27.5403 36.0662L33.8075 29.679C34.0356 29.4466 34.0356 29.0717 33.8075 28.8393C33.5795 28.6069 33.2117 28.6069 32.9837 28.8393Z" fill="#5DC4F1"/>
</svg>
