<svg width="56" height="50" viewBox="0 0 56 50" fill="none" xmlns="http://www.w3.org/2000/svg">
<path d="M26.7917 7.18307H7.42455C7.01467 7.18307 6.6793 7.53252 6.6793 7.95962V35.6824C6.6793 36.1095 7.01467 36.4589 7.42455 36.4589H25.6739L13.3213 48.6605C13.0232 48.9517 13.0139 49.4467 13.2934 49.7476C13.5729 50.0582 14.048 50.0679 14.3368 49.7767L26.7917 37.4782V49.2235C26.7917 49.6506 27.1271 50 27.537 50C27.9469 50 28.2822 49.6506 28.2822 49.2235V37.5073L40.4485 49.7767C40.5882 49.9223 40.7745 49.9903 40.9608 49.9903C41.1471 49.9903 41.3521 49.9126 41.4918 49.7573C41.7806 49.4467 41.7713 48.9614 41.4732 48.6702L29.3629 36.4589H47.3979C47.8078 36.4589 48.1432 36.1095 48.1432 35.6824V7.94991C48.1432 7.52281 47.8078 7.17337 47.3979 7.17337H28.2729V1.5531H54.3194C54.7293 1.5531 55.0647 1.20365 55.0647 0.776548C55.0647 0.349447 54.7293 0 54.3194 0H0.74525C0.335363 0 0 0.349447 0 0.776548C0 1.20365 0.335363 1.5531 0.74525 1.5531H26.7917V7.18307ZM46.6527 8.72646V34.9058H8.16049V8.72646H46.6433H46.6527Z" fill="#5DC4F1"/>
</svg>
