<svg width="54" height="57" viewBox="0 0 54 57" fill="none" xmlns="http://www.w3.org/2000/svg">
<path d="M27.1227 30.1354L40.9199 47.4076C41.1508 47.6967 41.5668 47.7364 41.8443 47.4959C42.1219 47.2554 42.16 46.8221 41.9291 46.533L28.1477 29.2806C33.3749 24.4394 34.0168 16.0896 29.5088 10.4461C25.0007 4.80258 16.6606 3.90284 11.1287 8.69666C5.59679 13.4905 4.84124 22.0722 9.4438 27.834C14.0464 33.5957 21.6175 34.2946 27.1227 30.1354ZM11.9631 9.74127C16.94 5.42847 24.3588 6.13706 28.4995 11.3207C32.6402 16.5043 31.9599 24.2315 26.9831 28.5443C22.0063 32.8571 14.5875 32.1485 10.4467 26.9648C6.306 21.7812 6.98632 14.0541 11.9631 9.74127Z" fill="#5DC4F1"/>
<path d="M27.3781 25.845C27.6556 25.6045 27.6937 25.1712 27.4628 24.8821C27.2319 24.593 26.8159 24.5533 26.5384 24.7938C23.5485 27.3848 20.2155 28.0495 16.6454 26.774C13.9167 25.8033 12.0585 24.0116 12.0364 23.9973C11.7676 23.7411 11.3642 23.7571 11.1129 24.0305C10.8669 24.3104 10.8823 24.7306 11.1447 24.9924C11.2256 25.0669 19.3357 32.8143 27.3781 25.845Z" fill="#5DC4F1"/>
</svg>
