<svg width="41" height="42" viewBox="0 0 41 42" fill="none" xmlns="http://www.w3.org/2000/svg">
<path d="M31.3382 21.4925C31.1102 21.2601 30.7424 21.2601 30.5144 21.4925L27.2557 24.8135L16.8619 14.2207L20.2456 10.7722C20.4736 10.5398 20.4736 10.1649 20.2456 9.93253L12.8088 2.33836C12.5808 2.10596 12.213 2.10596 11.985 2.33836L2.81223 11.6868C2.5842 11.9192 2.5842 12.294 2.81223 12.5264L24.7327 34.8666C24.9607 35.099 25.3285 35.099 25.5565 34.8666C25.7846 34.6342 25.7846 34.2594 25.5565 34.027L4.04801 12.1066L10.043 6.00425L16.6633 12.7513L15.6261 13.8083C15.3981 14.0407 15.3981 14.4156 15.6261 14.648L26.8438 26.0805C27.0718 26.3129 27.4396 26.3129 27.6677 26.0805L28.7563 24.9709L35.5311 31.8754L29.4037 38.1202C29.1756 38.3526 29.1756 38.7274 29.4037 38.9598C29.6317 39.1922 29.9995 39.1922 30.2275 38.9598L38.981 30.0387C39.209 29.8063 39.209 29.424 38.981 29.1916L31.3382 21.4925ZM10.8669 5.15713L12.3896 3.60531L19.0098 10.3523L17.4872 11.9042L10.8669 5.15713ZM36.3549 31.0283L29.5802 24.1238L30.9263 22.7519L37.7378 29.6114L36.3549 31.0208V31.0283Z" fill="#5DC4F1"/>
<path d="M19.0834 35.3913C19.4071 35.4288 19.7013 35.1664 19.7234 34.8366C19.7454 34.5142 19.51 34.2443 19.1937 34.2068C16.2735 33.877 13.5444 32.5426 11.4554 30.421C9.35895 28.2844 8.04961 25.4807 7.7333 22.4895C7.69652 22.1671 7.43171 21.9272 7.11541 21.9497C6.7844 21.9722 6.5343 22.2646 6.56372 22.5944C6.90209 25.863 8.32913 28.9216 10.6242 31.2606C12.9045 33.5846 15.891 35.039 19.076 35.3913H19.0834Z" fill="#5DC4F1"/>
<path d="M29.7862 11.7318C31.7134 13.6959 32.9566 16.1549 33.4053 18.8687C33.4568 19.1835 33.7363 19.4084 34.0526 19.371C34.3763 19.326 34.619 19.0186 34.5601 18.6888C34.0747 15.7201 32.7212 13.0362 30.6174 10.8922C28.4842 8.71813 25.8067 7.32374 22.8496 6.85145C22.526 6.79897 22.2244 7.03887 22.1876 7.37622C22.1508 7.69858 22.3715 7.98345 22.6878 8.03593C25.3947 8.47824 27.8369 9.74518 29.7936 11.7393L29.7862 11.7318Z" fill="#5DC4F1"/>
<path d="M20.7311 40.2568C15.5967 40.3168 10.6095 38.2627 6.97566 34.5593C3.34187 30.8559 1.32636 25.7881 1.37785 20.5629C1.37785 20.2406 1.14247 19.9707 0.81881 19.9557C0.487796 19.9407 0.208273 20.2031 0.208273 20.5404C0.142071 26.088 2.28998 31.4706 6.14445 35.3989C9.94743 39.2747 15.1333 41.4488 20.4957 41.4488C20.584 41.4488 20.6649 41.4488 20.7532 41.4488C21.0842 41.4488 21.3417 41.1564 21.3269 40.8265C21.3122 40.5042 21.0474 40.2568 20.7311 40.2568Z" fill="#5DC4F1"/>
<path d="M19.3703 0.156842C19.0466 0.171836 18.7965 0.471704 18.8259 0.809056C18.8554 1.13142 19.1275 1.36381 19.4438 1.34882C24.8651 1.04895 30.1392 3.09555 33.9937 7.02383C37.8997 11.0046 39.9078 16.4547 39.5474 22.0622C39.5253 22.3846 39.7533 22.6695 40.0696 22.6995C40.3933 22.7294 40.6875 22.4821 40.7096 22.1522C41.0921 16.2073 38.9589 10.4123 34.8176 6.1842C30.7277 2.00853 25.1299 -0.165517 19.3703 0.156842Z" fill="#5DC4F1"/>
</svg>
