<svg width="38" height="50" viewBox="0 0 38 50" fill="none" xmlns="http://www.w3.org/2000/svg">
<path d="M12.9858 21.9109L10.1524 30.9597C10.0615 31.2425 10.1606 31.551 10.3919 31.7224C10.6232 31.8938 10.9371 31.8938 11.1602 31.7224L18.5784 26.1268L25.9965 31.7224C26.1122 31.8081 26.2444 31.8509 26.3848 31.8509C26.5252 31.8509 26.6574 31.8081 26.773 31.7224C27.0044 31.551 27.1035 31.2425 27.0126 30.9597L24.1792 21.9109L31.5973 16.3154C31.8286 16.144 31.9278 15.8355 31.8369 15.5527C31.746 15.2699 31.4982 15.0814 31.2091 15.0814H22.0396L19.2062 6.03257C19.1153 5.7498 18.8675 5.56128 18.5784 5.56128C18.2892 5.56128 18.0414 5.7498 17.9505 6.03257L15.1171 15.0814H5.94763C5.66676 15.0814 5.41068 15.2699 5.31981 15.5527C5.22894 15.8355 5.32807 16.144 5.55937 16.3154L12.9776 21.9109H12.9858ZM15.5962 16.4525C15.8771 16.4525 16.1332 16.2639 16.224 15.9812L18.5784 8.45759L20.9327 15.9812C21.0235 16.2639 21.2714 16.4525 21.5605 16.4525H29.1852L23.0144 21.1054C22.7831 21.2768 22.684 21.5853 22.7748 21.8681L25.1292 29.3916L18.9584 24.7387C18.7271 24.5673 18.4131 24.5673 18.1901 24.7387L12.0193 29.3916L14.3736 21.8681C14.4645 21.5853 14.3654 21.2768 14.1341 21.1054L7.96326 16.4525H15.588H15.5962Z" fill="#5DC4F1"/>
<path d="M36.5044 50C36.3722 50 36.2483 49.9572 36.1326 49.88L18.5785 37.5064L1.02434 49.88C0.826078 50.0257 0.561733 50.0343 0.346953 49.9229C0.132172 49.8029 0 49.5716 0 49.3231V0.685518C0 0.308483 0.297388 0 0.660862 0H36.5044C36.8679 0 37.1652 0.308483 37.1652 0.685518V49.3231C37.1652 49.5716 37.0331 49.8029 36.8183 49.9229C36.7192 49.9743 36.62 50 36.5126 50H36.5044ZM18.5785 36.0069C18.7107 36.0069 18.8346 36.0497 18.9502 36.1268L35.8435 48.0377V1.36247H1.31346V48.0291L18.2068 36.1183C18.3141 36.0411 18.4463 35.9983 18.5785 35.9983V36.0069Z" fill="#5DC4F1"/>
</svg>
